<svg width="60px" height="64px" viewBox="0 0 60 64" version="1.1" xmlns="http://www.w3.org/2000/svg" xmlns:xlink="http://www.w3.org/1999/xlink">
    <!-- Generator: Sketch 45.1 (43504) - http://www.bohemiancoding.com/sketch -->
    <desc>Created with Sketch.</desc>
    <defs></defs>
    <g id="Mocks" stroke="none" stroke-width="1" fill="none" fill-rule="evenodd">
        <g id="support-center-1" transform="translate(-130.000000, -828.000000)" fill="#FFFFFF">
            <g id="cards" transform="translate(16.000000, 416.000000)">
                <g id="card-1-copy-3" transform="translate(0.000000, 392.000000)">
                    <g id="icon-/-shield-/-88px" transform="translate(112.000000, 20.000000)">
                        <path d="M61.0964575,10.1955266 C61.0742208,8.66675353 60.2570221,7.27418024 58.9144814,6.54592834 C52.7243402,3.19374593 42.4148506,0 32.0080753,0 C21.6040797,0 11.2918104,3.19374593 5.10444882,6.54592834 C3.75912852,7.27418024 2.94470941,8.66675353 2.92247271,10.1955266 C2.77237499,20.4855592 3.42557803,45.3739848 29.8983685,63.3579153 C31.1575216,64.2140282 32.8614087,64.2140282 34.1177822,63.3579153 C60.5933522,45.3739848 61.2437756,20.4855592 61.0964575,10.1955266 L61.0964575,10.1955266 Z M33.3367181,57.5291205 C32.5612132,58.1017155 31.457717,58.0989359 30.6877713,57.5207818 C9.77137608,41.8105537 8.27317847,20.74962 8.23426424,12.4914658 C8.22870507,11.4241042 8.83187553,10.4873833 9.77415566,9.98983713 C14.810768,7.34089034 23.3718972,5.33680782 32.0080753,5.33680782 C40.647033,5.33680782 49.2081622,7.34089034 54.2447746,9.98983713 C55.1870547,10.4873833 55.7874456,11.4241042 55.784666,12.4886862 C55.7485313,20.7635179 54.2864684,41.9634311 33.3367181,57.5291205 L33.3367181,57.5291205 Z M50.6452089,21.9809772 C44.1854477,23.1734202 29.6565444,26.3171336 16.4034716,32.3960912 C15.5668158,32.7796743 14.5661644,32.390532 14.2465118,31.5288599 C11.7337648,24.7689034 11.0694434,18.7510966 10.9388028,15.0542454 C10.8915498,13.7200434 11.5836671,12.4664495 12.7844488,11.877177 C17.3096171,9.65628664 24.6254912,8.00799131 32.0080753,8.00799131 C39.3878799,8.00799131 46.7009743,9.65628664 51.2261426,11.8743974 C52.4213652,12.4608903 53.1273804,13.6978067 53.0773478,15.0292291 C53.0300949,16.3523127 52.907793,17.9811509 52.6631893,19.8323561 C52.5186508,20.910836 51.71535,21.7836265 50.6452089,21.9809772 L50.6452089,21.9809772 Z M19.6083359,37.2353529 C26.9714629,33.7275136 37.2142425,29.7388056 48.5549591,27.9320738 C49.7362838,27.7458415 50.6757843,28.907709 50.2922013,30.0390011 C47.6988462,37.7245603 42.762299,46.558089 33.4089874,54.0935505 C32.6056866,54.7411944 31.410464,54.7384148 30.6071633,54.0907709 C25.3037105,49.8129859 21.4317452,45.1321607 18.5937865,40.4846906 C17.8849917,39.3256026 18.3853174,37.8190662 19.6083359,37.2353529 L19.6083359,37.2353529 Z" id="shield"></path>
                    </g>
                </g>
            </g>
        </g>
    </g>
</svg>
