<svg width="72px" height="72px" viewBox="0 0 72 72" version="1.1" xmlns="http://www.w3.org/2000/svg" xmlns:xlink="http://www.w3.org/1999/xlink">
    <!-- Generator: Sketch 45.1 (43504) - http://www.bohemiancoding.com/sketch -->
    <desc>Created with Sketch.</desc>
    <defs>
        <circle id="path-1" cx="32" cy="32" r="32"></circle>
        <filter x="-10.9%" y="-7.8%" width="121.9%" height="121.9%" filterUnits="objectBoundingBox" id="filter-2">
            <feOffset dx="0" dy="2" in="SourceAlpha" result="shadowOffsetOuter1"></feOffset>
            <feGaussianBlur stdDeviation="2" in="shadowOffsetOuter1" result="shadowBlurOuter1"></feGaussianBlur>
            <feComposite in="shadowBlurOuter1" in2="SourceAlpha" operator="out" result="shadowBlurOuter1"></feComposite>
            <feColorMatrix values="0 0 0 0 0   0 0 0 0 0   0 0 0 0 0  0 0 0 0.300000012 0" type="matrix" in="shadowBlurOuter1"></feColorMatrix>
        </filter>
    </defs>
    <g id="Mocks" stroke="none" stroke-width="1" fill="none" fill-rule="evenodd">
        <g id="support-center-1" transform="translate(-124.000000, -434.000000)">
            <g id="cards" transform="translate(16.000000, 416.000000)">
                <g id="card-1-copy-4">
                    <g id="ill-/-bitcoin" transform="translate(112.000000, 20.000000)">
                        <g id="background">
                            <use fill="black" fill-opacity="1" filter="url(#filter-2)" xlink:href="#path-1"></use>
                            <use fill="#F7A445" fill-rule="evenodd" xlink:href="#path-1"></use>
                            <circle stroke="#65696E" stroke-width="2" cx="32" cy="32" r="31"></circle>
                        </g>
                        <g id="bitcoin-safety-shield-symbol-copy-2" transform="translate(19.000000, 14.000000)" fill="#FFFFFF">
                            <g id="Capa_1">
                                <path d="M24.526,20.2830769 C23.986,19.3353846 23.263,18.6061538 22.348,18.08 C21.715,17.7046154 20.797,17.36 19.609,17.0461538 C20.719,16.6584615 21.613,16.1723077 22.297,15.5723077 C22.975,14.9784615 23.488,14.2953846 23.857,13.5230769 C24.217,12.7476923 24.4,11.9261538 24.4,11.0646154 C24.4,9.88 24.061,8.79076923 23.38,7.79384615 C22.693,6.80615385 21.724,6.04307692 20.458,5.51076923 C19.966,5.30461538 19.381,5.15076923 18.751,5.02769231 L18.751,0.415384615 L14.434,0.415384615 L14.434,4.71076923 L11.659,4.71076923 L11.659,0.415384615 L7.342,0.415384615 L7.342,4.71076923 L0.76,4.71076923 L0.76,8.32615385 L1.765,8.32615385 C2.434,8.32615385 2.887,8.39076923 3.124,8.51692308 C3.364,8.64 3.529,8.80923077 3.625,9.02153846 C3.724,9.23384615 3.772,9.72615385 3.772,10.4953846 L3.772,25.0738462 C3.772,25.8369231 3.724,26.3230769 3.625,26.5476923 C3.529,26.7692308 3.361,26.9323077 3.124,27.0523077 C2.887,27.1723077 2.434,27.24 1.765,27.24 L0.76,27.24 L0.76,30.8523077 L7.342,30.8523077 L7.342,35.1476923 L11.659,35.1476923 L11.659,30.8523077 L14.113,30.8523077 L14.431,30.8523077 L14.431,35.1476923 L18.745,35.1476923 L18.745,30.4769231 C19.468,30.3323077 20.104,30.1538462 20.65,29.9292308 C22.141,29.3169231 23.293,28.4276923 24.103,27.2553846 C24.916,26.0892308 25.327,24.8153846 25.327,23.4276923 C25.33,22.28 25.06,21.2276923 24.526,20.2830769 Z M16.267,9.24615385 C16.9,9.44923077 17.386,9.79692308 17.719,10.2861538 C18.049,10.7723077 18.217,11.3569231 18.217,12.0430769 C18.217,12.7107692 18.04,13.2923077 17.686,13.7969231 C17.335,14.3015385 16.81,14.6769231 16.108,14.9292308 C15.409,15.1815385 14.329,15.3046154 12.865,15.3046154 L10.069,15.3046154 L10.069,8.93538462 L12.865,8.93538462 C14.497,8.93538462 15.634,9.03692308 16.267,9.24615385 Z M13.465,26.6769231 L11.605,26.6769231 C10.984,26.6769231 10.606,26.64 10.468,26.5753846 C10.327,26.5107692 10.225,26.3876923 10.165,26.2153846 C10.114,26.0707692 10.087,25.6153846 10.075,24.8092308 L10.075,19.1476923 L13.372,19.1476923 C14.818,19.1476923 15.898,19.2861538 16.6,19.5630769 C17.302,19.84 17.833,20.2492308 18.184,20.7815385 C18.535,21.3230769 18.715,21.9723077 18.715,22.7446154 C18.715,23.6646154 18.466,24.4461538 17.968,25.0953846 C17.47,25.7446154 16.864,26.1784615 16.156,26.3753846 C15.442,26.5753846 14.545,26.6769231 13.465,26.6769231 Z" id="Shape"></path>
                            </g>
                        </g>
                    </g>
                </g>
            </g>
        </g>
    </g>
</svg>
