<svg width="554" height="885" viewBox="0 0 554 885" fill="none" xmlns="http://www.w3.org/2000/svg">
<path d="M5.81311 120.68L375.212 335.412L407.526 866.498L38.1277 651.774L5.81311 120.68Z" fill="#1E2A7B"/>
<path d="M49.058 274.651L70.6222 629.06L369.763 802.511L348.199 448.106L49.058 274.651Z" fill="#111B5C"/>
<path d="M43.3314 181.222L47.6468 252.147C47.9023 256.347 50.105 260.122 53.4153 262.043L331.391 423.191C338.458 427.291 346.56 421.238 346.015 412.273L341.699 341.348C341.444 337.148 339.244 333.373 335.934 331.452L57.9583 170.304C50.8888 166.208 42.7859 172.257 43.3314 181.222Z" fill="url(#paint0_linear)"/>
<path d="M109.839 279.058L96.6024 271.282L112.885 222.852L125.633 230.343L149.712 302.507L136.964 295.012L132.983 282.404L112.431 270.321L109.839 279.058ZM128.526 268.203L120.576 242.844L115.372 260.466L128.526 268.203Z" fill="white"/>
<path d="M197.736 271.695L198.525 284.653L182.913 275.919L185.785 323.118L173.376 315.82L170.504 268.625L156.264 260.256L155.475 247.297L197.736 271.695Z" fill="white"/>
<path d="M264.408 310.91L268.068 371.068L257.021 364.568L254.702 326.461L245.601 352.063L237.456 347.274L224.442 308.674L226.696 346.745L215.703 340.282L212.042 280.125L225.61 288.099L240.36 330.614L250.843 302.932L264.408 310.91Z" fill="white"/>
<path d="M70.6221 629.06L369.763 802.51L364.451 715.208L123.226 576.008L70.6221 629.06Z" fill="#5766C4"/>
<path d="M348.212 448.09L364.466 715.224L123.229 576L155.781 336.54L348.212 448.09Z" fill="#92A1FD"/>
<path d="M340.834 454.15L167.061 352.402L141.333 542.284L315.035 644.001L340.834 454.15Z" fill="#5766C4"/>
<path d="M332.818 475.581L190.969 392.522L169.964 547.529L311.759 630.559L332.818 475.581Z" fill="#020B4E"/>
<path d="M291.186 637.436L286.685 662.335L167.806 593.438L172.594 567.286L291.186 637.436Z" fill="#5766C4"/>
<path d="M290.143 643.195L286.609 662.338L178.332 599.062L182.116 578.845L290.143 643.195Z" fill="#020B4E"/>
<path d="M287.949 655.528L286.633 662.389L167.806 593.438L169.072 586.894L287.949 655.528Z" fill="url(#paint1_linear)"/>
<path d="M328.772 567.108L350.913 579.835L353.297 562.27L331.157 549.552L328.772 567.108Z" fill="white"/>
<path d="M321.833 616.098L343.973 628.825L346.358 611.265L324.218 598.542L321.833 616.098Z" fill="white"/>
<path d="M351.624 506.221L337.32 497.715L334.935 515.268L352.822 525.915L351.624 506.221Z" fill="white"/>
<path d="M161.317 677.594L246.842 728.115C248.788 729.261 251.12 728.902 252.668 727.219L290.93 685.611C293.457 682.861 292.78 678.004 289.608 676.132L205.066 626.193C203.152 625.065 200.859 625.391 199.308 627.015L160.064 668.044C157.462 670.761 158.109 675.696 161.317 677.594Z" fill="#1E2A7B"/>
<path d="M261.111 684.412L272.325 691.038C272.793 691.312 273.356 691.236 273.735 690.84L281.911 682.399C282.556 681.731 282.399 680.511 281.608 680.042L270.386 673.412C269.919 673.138 269.358 673.213 268.976 673.606L260.807 682.05C260.158 682.723 260.319 683.943 261.111 684.412Z" fill="#D0D5FF"/>
<path d="M243.286 673.881L254.504 680.511C254.971 680.786 255.532 680.71 255.913 680.313L264.082 671.873C264.728 671.204 264.574 669.98 263.779 669.515L252.561 662.886C252.094 662.611 251.533 662.687 251.151 663.079L242.979 671.524C242.334 672.192 242.491 673.412 243.286 673.881Z" fill="#D0D5FF"/>
<path d="M225.457 663.354L236.675 669.98C237.143 670.259 237.703 670.179 238.085 669.787L246.261 661.342C246.907 660.673 246.748 659.45 245.954 658.985L234.736 652.359C234.269 652.08 233.708 652.16 233.326 652.553L225.154 660.993C224.508 661.665 224.666 662.885 225.457 663.354Z" fill="#D0D5FF"/>
<path d="M248.31 697.638L259.528 704.264C259.995 704.543 260.555 704.463 260.937 704.07L269.109 695.63C269.755 694.961 269.597 693.738 268.806 693.269L257.589 686.643C257.117 686.364 256.557 686.444 256.175 686.837L248.006 695.277C247.357 695.949 247.518 697.169 248.31 697.638Z" fill="#D0D5FF"/>
<path d="M230.484 687.108L241.703 693.737C242.174 694.012 242.734 693.936 243.116 693.543L251.285 685.099C251.93 684.431 251.776 683.207 250.981 682.738L239.763 676.112C239.296 675.833 238.735 675.913 238.353 676.306L230.178 684.75C229.536 685.422 229.693 686.643 230.484 687.108Z" fill="#D0D5FF"/>
<path d="M212.659 676.577L223.877 683.211C224.345 683.485 224.906 683.409 225.287 683.017L233.459 674.572C234.105 673.904 233.951 672.68 233.156 672.211L221.938 665.585C221.47 665.307 220.91 665.386 220.529 665.779L212.356 674.22C211.711 674.892 211.868 676.112 212.659 676.577Z" fill="#D0D5FF"/>
<path d="M235.515 710.864L246.733 717.494C247.201 717.769 247.761 717.693 248.143 717.301L256.315 708.856C256.961 708.188 256.807 706.964 256.012 706.495L244.794 699.869C244.323 699.59 243.763 699.67 243.381 700.063L235.209 708.503C234.56 709.176 234.721 710.396 235.515 710.864Z" fill="#D0D5FF"/>
<path d="M217.687 700.338L228.908 706.964C229.376 707.242 229.936 707.163 230.318 706.77L238.49 698.329C239.136 697.661 238.979 696.437 238.187 695.968L226.969 689.338C226.502 689.064 225.937 689.14 225.559 689.532L217.384 697.977C216.735 698.649 216.895 699.865 217.687 700.338Z" fill="#D0D5FF"/>
<path d="M199.862 689.807L211.08 696.437C211.547 696.712 212.108 696.636 212.49 696.239L220.662 687.799C221.308 687.131 221.153 685.906 220.359 685.438L209.141 678.812C208.673 678.533 208.112 678.613 207.731 679.005L199.559 687.45C198.913 688.122 199.07 689.338 199.862 689.807Z" fill="#D0D5FF"/>
<path d="M193.537 644.498L217.746 658.798C218.214 659.076 218.774 658.996 219.156 658.604L227.328 650.163C227.978 649.495 227.82 648.275 227.029 647.806L202.816 633.502C202.345 633.228 201.785 633.304 201.403 633.696L193.234 642.137C192.588 642.805 192.743 644.029 193.537 644.498Z" fill="#D0D5FF"/>
<path d="M180.74 657.729L204.949 672.028C205.416 672.303 205.977 672.227 206.358 671.83L214.53 663.389C215.176 662.721 215.022 661.497 214.227 661.032L190.018 646.729C189.547 646.455 188.987 646.53 188.605 646.927L180.436 655.367C179.787 656.036 179.948 657.26 180.74 657.729Z" fill="#D0D5FF"/>
<path d="M167.938 670.955L192.147 685.255C192.618 685.529 193.178 685.453 193.56 685.061L201.732 676.616C202.378 675.948 202.224 674.728 201.429 674.255L177.217 659.956C176.749 659.681 176.189 659.757 175.807 660.15L167.635 668.598C166.989 669.262 167.147 670.486 167.938 670.955Z" fill="#D0D5FF"/>
<path d="M515.56 232.537L456.571 830.131L407.526 866.498L375.212 335.412L515.56 232.537Z" fill="#111B5C"/>
<path d="M146.162 17.8124L515.56 232.537L375.212 335.412L5.81311 120.68L146.162 17.8124Z" fill="#5766C4"/>
<defs>
<linearGradient id="paint0_linear" x1="50.7984" y1="303.96" x2="338.36" y2="286.464" gradientUnits="userSpaceOnUse">
<stop offset="8.1e-07" stop-color="#FF8B5B"/>
<stop offset="1" stop-color="#8B0F61"/>
</linearGradient>
<linearGradient id="paint1_linear" x1="169.88" y1="627.545" x2="285.818" y2="620.491" gradientUnits="userSpaceOnUse">
<stop offset="8.1e-07" stop-color="#FF8B5B"/>
<stop offset="1" stop-color="#8B0F61"/>
</linearGradient>
</defs>
</svg>
