<?xml version="1.0" encoding="utf-8"?>
<!-- Generator: Adobe Illustrator 24.0.0, SVG Export Plug-In . SVG Version: 6.00 Build 0)  -->
<svg version="1.1" id="Layer_1" xmlns="http://www.w3.org/2000/svg" xmlns:xlink="http://www.w3.org/1999/xlink" x="0px" y="0px"
	 viewBox="0 0 48 48" style="enable-background:new 0 0 48 48;" xml:space="preserve">
<g>
	<g>
		<path d="M36.26,19.16c-0.56,0-1.03,0.47-1.03,1.03v23.75c0,0.56-0.47,1.03-1.03,1.03H13.79c-0.56-0.01-1.03-0.47-1.03-1.03V20.19
			c0-0.56-0.47-1.03-1.03-1.03s-1.01,0.47-1.01,1.03v23.75c0,1.69,1.39,3.07,3.08,3.07h20.43c1.69,0,3.08-1.39,3.08-3.08V20.19
			C37.27,19.63,36.82,19.16,36.26,19.16z"/>
		<path d="M34.22,47.54H13.79c-1.99,0-3.61-1.61-3.61-3.6V20.19c0-0.86,0.69-1.57,1.54-1.57c0.86,0,1.57,0.7,1.57,1.57v23.75
			c0,0.27,0.23,0.49,0.51,0.5h20.4c0.27,0,0.5-0.23,0.5-0.5V20.19c0-0.86,0.7-1.57,1.57-1.57c0.83,0,1.54,0.69,1.57,1.55v23.76
			C37.83,45.92,36.21,47.54,34.22,47.54z M11.73,19.7c-0.26,0-0.48,0.22-0.48,0.5v23.75c0,1.4,1.14,2.53,2.54,2.53h20.43
			c1.4,0,2.54-1.14,2.54-2.54V20.19c-0.01-0.27-0.23-0.5-0.5-0.5c-0.27,0-0.5,0.23-0.5,0.5v23.75c0,0.86-0.7,1.57-1.57,1.57H13.79
			c-0.87-0.02-1.57-0.72-1.57-1.57V20.19C12.23,19.93,11.99,19.7,11.73,19.7z"/>
	</g>
	<g>
		<path d="M44.24,0.54H3.75c-1.76,0-3.21,1.43-3.21,3.19v21.34c0,1.76,1.45,3.21,3.21,3.21h3.21c0.59,0,1.08-0.49,1.08-1.08
			s-0.49-1.08-1.08-1.08H3.75c-0.59-0.01-1.08-0.5-1.08-1.09V3.73c0-0.59,0.49-1.08,1.08-1.08h40.51c0.59,0,1.08,0.49,1.08,1.08
			v21.34c0,0.59-0.49,1.08-1.08,1.08h-3.21c-0.59,0-1.08,0.49-1.08,1.08s0.49,1.08,1.08,1.08h3.21c1.76,0,3.21-1.45,3.21-3.21V3.73
			C47.45,1.97,46,0.54,44.24,0.54z"/>
		<path d="M44.26,28.84h-3.21c-0.89,0-1.61-0.72-1.61-1.61c0-0.89,0.72-1.61,1.61-1.61h3.21c0.29,0,0.54-0.25,0.54-0.54V3.73
			c0-0.29-0.25-0.54-0.54-0.54H3.75c-0.29,0-0.54,0.25-0.54,0.54v21.31c0,0.3,0.25,0.55,0.55,0.55h3.2c0.89,0,1.61,0.72,1.61,1.61
			c0,0.89-0.72,1.61-1.61,1.61H3.75c-2.06,0-3.74-1.68-3.74-3.74V3.73c0-2.05,1.68-3.72,3.74-3.72h40.49c2.05,0,3.74,1.67,3.76,3.72
			v21.37C48.01,27.16,46.33,28.84,44.26,28.84z M41.05,26.68c-0.29,0-0.54,0.25-0.54,0.54c0,0.29,0.25,0.54,0.54,0.54h3.21
			c1.48,0,2.68-1.2,2.68-2.68V3.73c-0.02-1.46-1.23-2.66-2.7-2.66H3.75c-1.48,0-2.68,1.19-2.68,2.66v21.34
			c0,1.48,1.2,2.68,2.68,2.68h3.21c0.29,0,0.54-0.25,0.54-0.54c0-0.29-0.25-0.54-0.54-0.54H3.75c-0.89-0.02-1.61-0.74-1.61-1.62
			V3.73c0-0.89,0.72-1.61,1.61-1.61h40.51c0.89,0,1.61,0.72,1.61,1.61v21.34c0,0.89-0.72,1.61-1.61,1.61H41.05z"/>
	</g>
	<g>
		<path d="M39.04,14.35c0,0.55,0.46,1.01,1.01,1.01s1-0.46,1-1.01v-2.01c0-0.55-0.46-1.01-1.01-1.01H7.95
			c-0.55,0-1.01,0.46-1.01,1.01v2.01c0,0.55,0.46,1.01,1.01,1.01s1.01-0.46,1.01-1.01v-1h30.07C39.04,13.35,39.04,14.35,39.04,14.35
			z"/>
		<path d="M40.05,15.9c-0.85,0-1.55-0.69-1.55-1.55v-0.47H9.5v0.47c0,0.85-0.69,1.55-1.55,1.55S6.4,15.21,6.4,14.35v-2.01
			c0-0.85,0.69-1.55,1.55-1.55h32.09c0.85,0,1.55,0.69,1.55,1.55v2.01C41.58,15.21,40.9,15.9,40.05,15.9z M8.43,12.82h31.14v1.54
			c0,0.26,0.22,0.48,0.48,0.48c0.25,0,0.47-0.22,0.47-0.48v-2.01c0-0.26-0.22-0.48-0.48-0.48H7.95c-0.26,0-0.48,0.22-0.48,0.48v2.01
			c0,0.26,0.22,0.48,0.48,0.48s0.48-0.22,0.48-0.48V12.82z"/>
	</g>
	<g>
		<path d="M16.73,21.95c-0.5,0-0.92,0.42-0.92,0.92v16.27c0,0.5,0.42,0.92,0.92,0.92c0.5,0,0.92,0.42,0.92,0.92
			c0,0.5,0.42,0.92,0.92,0.92h10.92c0.5,0,0.92-0.42,0.92-0.92c0-0.5,0.36-0.94,0.86-0.94c0.5,0,0.92-0.42,0.92-0.92V22.85
			c0-0.5-0.42-0.92-0.92-0.92c-0.5,0-0.92,0.42-0.92,0.92v15.53c-0.76,0.26-1.38,0.88-1.65,1.65h-9.43
			c-0.26-0.76-0.88-1.36-1.65-1.65V22.85C17.63,22.37,17.23,21.95,16.73,21.95z"/>
		<path d="M29.49,42.43H18.57c-0.8,0-1.45-0.65-1.45-1.45c0-0.21-0.18-0.39-0.39-0.39c-0.8,0-1.45-0.65-1.45-1.45V22.87
			c0-0.8,0.65-1.45,1.45-1.45c0.79,0,1.43,0.64,1.43,1.43v15.18c0.64,0.32,1.16,0.84,1.47,1.46h8.72c0.31-0.64,0.83-1.16,1.47-1.47
			V22.85c0-0.8,0.65-1.45,1.45-1.45c0.8,0,1.45,0.65,1.45,1.45v16.27c0,0.8-0.65,1.45-1.45,1.45c-0.21,0-0.33,0.21-0.33,0.4
			C30.94,41.78,30.29,42.43,29.49,42.43z M16.73,22.48c-0.21,0-0.39,0.18-0.39,0.39v16.27c0,0.21,0.18,0.39,0.39,0.39
			c0.8,0,1.45,0.65,1.45,1.45c0,0.21,0.18,0.39,0.39,0.39h10.92c0.21,0,0.39-0.18,0.39-0.39c0-0.81,0.63-1.47,1.4-1.47
			c0.21,0,0.39-0.18,0.39-0.39V22.85c0-0.21-0.18-0.39-0.39-0.39c-0.21,0-0.39,0.18-0.39,0.39v15.91l-0.36,0.12
			c-0.61,0.21-1.1,0.71-1.32,1.32l-0.12,0.36H18.9l-0.12-0.36c-0.21-0.6-0.7-1.09-1.33-1.32l-0.35-0.13v-15.9
			C17.1,22.65,16.93,22.48,16.73,22.48z"/>
	</g>
	<g>
		<path d="M23.99,23.86c2.23,0,4.03-1.81,4.03-4.03c0-0.37-0.31-0.68-0.68-0.68s-0.68,0.31-0.68,0.68c0,1.49-1.21,2.69-2.69,2.69
			s-2.69-1.21-2.69-2.69c0-0.37-0.31-0.68-0.68-0.68s-0.68,0.31-0.68,0.68C19.96,22.05,21.76,23.86,23.99,23.86z"/>
		<path d="M23.99,24.39c-2.5,0-4.56-2.04-4.6-4.55c0-0.68,0.54-1.22,1.21-1.22c0.67,0,1.21,0.54,1.21,1.21
			c0,1.19,0.97,2.15,2.16,2.15c1.19,0,2.15-0.97,2.15-2.15c0-0.67,0.54-1.21,1.21-1.21c0.67,0,1.21,0.54,1.21,1.21
			C28.55,22.35,26.51,24.39,23.99,24.39z M20.61,19.69c-0.07,0-0.15,0.07-0.15,0.15c0.03,1.92,1.61,3.49,3.53,3.49
			c1.93,0,3.49-1.57,3.49-3.49c0-0.15-0.29-0.15-0.29,0c0,1.78-1.45,3.22-3.22,3.22c-1.78,0-3.22-1.44-3.22-3.22
			C20.75,19.76,20.68,19.69,20.61,19.69z"/>
	</g>
</g>
</svg>
