<svg width="159" height="127" viewBox="0 0 159 127" fill="none" xmlns="http://www.w3.org/2000/svg">
<g filter="url(#filter0_d)">
<rect width="149.623" height="112.029" rx="10" fill="#606060"/>
</g>
<path d="M6.01495 16.7669C6.01495 11.244 10.4921 6.76687 16.015 6.76687H134.36C139.883 6.76687 144.36 11.244 144.36 16.7669V96.7662C144.36 102.289 139.883 106.766 134.36 106.766H16.015C10.4921 106.766 6.01495 102.289 6.01495 96.7662V16.7669Z" stroke="white" stroke-miterlimit="3.23607" stroke-linecap="square" stroke-linejoin="round" stroke-dasharray="5 15"/>
<g filter="url(#filter1_d)">
<rect x="96.9918" y="37.5937" width="57.1424" height="30.8268" rx="8" fill="#0F0000"/>
</g>
<ellipse cx="113.157" cy="52.6312" rx="7.14281" ry="7.51874" fill="#C4C4C4"/>
<path fill-rule="evenodd" clip-rule="evenodd" d="M76.0939 49.3127H77.0265V29.9397H57.6316V30.8673C62.0563 32.0609 66.0896 34.3963 69.3274 37.6395C72.565 40.8718 74.8978 44.8968 76.0929 49.3127H76.0939ZM24.3953 56.3017C24.4074 63.0286 26.9724 69.7514 32.0934 74.8722C37.2264 80.004 43.9687 82.5709 50.7109 82.5709V29.9397C43.9687 29.9397 37.2264 32.5067 32.0934 37.6395C26.9724 42.7603 24.4074 49.4831 24.3953 56.209V56.3017ZM76.0939 63.198H77.0265V82.5699H57.6316V81.6434C62.0561 80.4494 66.0893 78.114 69.3274 74.8712C72.5646 71.6386 74.8973 67.6137 76.0929 63.198" fill="white"/>
<defs>
<filter id="filter0_d" x="0" y="0" width="158.623" height="126.029" filterUnits="userSpaceOnUse" color-interpolation-filters="sRGB">
<feFlood flood-opacity="0" result="BackgroundImageFix"/>
<feColorMatrix in="SourceAlpha" type="matrix" values="0 0 0 0 0 0 0 0 0 0 0 0 0 0 0 0 0 0 127 0"/>
<feOffset dx="5" dy="10"/>
<feGaussianBlur stdDeviation="2"/>
<feColorMatrix type="matrix" values="0 0 0 0 0 0 0 0 0 0 0 0 0 0 0 0 0 0 0.25 0"/>
<feBlend mode="normal" in2="BackgroundImageFix" result="effect1_dropShadow"/>
<feBlend mode="normal" in="SourceGraphic" in2="effect1_dropShadow" result="shape"/>
</filter>
<filter id="filter1_d" x="92.9918" y="37.5937" width="65.1424" height="38.8268" filterUnits="userSpaceOnUse" color-interpolation-filters="sRGB">
<feFlood flood-opacity="0" result="BackgroundImageFix"/>
<feColorMatrix in="SourceAlpha" type="matrix" values="0 0 0 0 0 0 0 0 0 0 0 0 0 0 0 0 0 0 127 0"/>
<feOffset dy="4"/>
<feGaussianBlur stdDeviation="2"/>
<feColorMatrix type="matrix" values="0 0 0 0 0 0 0 0 0 0 0 0 0 0 0 0 0 0 0.25 0"/>
<feBlend mode="normal" in2="BackgroundImageFix" result="effect1_dropShadow"/>
<feBlend mode="normal" in="SourceGraphic" in2="effect1_dropShadow" result="shape"/>
</filter>
</defs>
</svg>
